<?xml version="1.0" encoding="UTF-8" standalone="no"?>
<!-- Uploaded to: SVG Repo, www.svgrepo.com, Transformed by: SVG Repo Mixer Tools -->

<svg
   width="30"
   height="30"
   viewBox="0 0 9.2307692 9.2307692"
   fill="none"
   version="1.1"
   id="svg7"
   sodipodi:docname="email-circle-fill-svgrepo-com.svg"
   inkscape:version="1.2.1 (9c6d41e4, 2022-07-14)"
   xmlns:inkscape="http://www.inkscape.org/namespaces/inkscape"
   xmlns:sodipodi="http://sodipodi.sourceforge.net/DTD/sodipodi-0.dtd"
   xmlns="http://www.w3.org/2000/svg"
   xmlns:svg="http://www.w3.org/2000/svg">
  <defs
     id="defs11" />
  <sodipodi:namedview
     id="namedview9"
     pagecolor="#ffffff"
     bordercolor="#000000"
     borderopacity="0.25"
     inkscape:showpageshadow="2"
     inkscape:pageopacity="0.0"
     inkscape:pagecheckerboard="0"
     inkscape:deskcolor="#d1d1d1"
     showgrid="false"
     inkscape:zoom="3.025641"
     inkscape:cx="30.902542"
     inkscape:cy="12.559322"
     inkscape:window-width="1309"
     inkscape:window-height="456"
     inkscape:window-x="0"
     inkscape:window-y="37"
     inkscape:window-maximized="0"
     inkscape:current-layer="svg7" />
  <g
     id="SVGRepo_bgCarrier"
     stroke-width="0" />
  <g
     id="SVGRepo_tracerCarrier"
     stroke-linecap="round"
     stroke-linejoin="round" />
  <g
     id="SVGRepo_iconCarrier"
     transform="matrix(0.40092308,0,0,0.40092308,-0.19569236,-0.19569236)">
    <path
       fill-rule="evenodd"
       clip-rule="evenodd"
       d="M 22,12 C 22,17.5228 17.5228,22 12,22 6.47715,22 2,17.5228 2,12 2,6.47715 6.47715,2 12,2 17.5228,2 22,6.47715 22,12 Z M 7.005,9 C 7.005,8.45 7.45,8 8,8 h 8 c 0.55,0 1,0.45 1,1 v 6 c 0,0.55 -0.45,1 -1,1 H 8 C 7.45,16 7,15.55 7,15 Z M 12,12.5 8.00001,9.99997 V 15 H 16 V 9.99997 Z m 0,-1 L 8.00001,9.00001 H 16 Z"
       fill="#000000"
       id="path4" />
  </g>
</svg>
